#N canvas 64 101 500 450 12;
#X obj 30 30 netreceive -u -b 9000;
#X obj 30 60 oscparse;
#X obj 30 90 list trim;
#X obj 30 120 route slash;
#X obj 30 155 select 1 2;
#X msg 30 195 1 5 \, 0 150 5;
#X msg 200 195 1 5 \, 0 200 5;
#X obj 30 235 vline~;
#X obj 200 235 vline~;
#X obj 30 275 noise~;
#X obj 30 305 bp~ 900 5;
#X obj 200 305 bp~ 400 3;
#X obj 30 345 *~;
#X obj 200 345 *~;
#X obj 30 385 +~;
#X obj 30 415 *~ 0.5;
#X obj 30 450 dac~;
#X text 30 175 slash 1;
#X text 200 175 slash 2;
#X connect 0 0 1 0;
#X connect 1 0 2 0;
#X connect 2 0 3 0;
#X connect 3 0 4 0;
#X connect 4 0 5 0;
#X connect 4 1 6 0;
#X connect 5 0 7 0;
#X connect 6 0 8 0;
#X connect 9 0 10 0;
#X connect 9 0 11 0;
#X connect 10 0 12 0;
#X connect 7 0 12 1;
#X connect 11 0 13 0;
#X connect 8 0 13 1;
#X connect 12 0 14 0;
#X connect 13 0 14 1;
#X connect 14 0 15 0;
#X connect 15 0 16 0;
#X connect 15 0 16 1;
